<mxfile host="app.diagrams.net" modified="2023-09-13T01:56:59.582Z" agent="Mozilla/5.0 (Windows NT 10.0; WOW64) AppleWebKit/537.36 (KHTML, like Gecko) Chrome/103.0.0.0 Safari/537.36" version="21.7.4" etag="Eaq9mHec1FPxkH0cWutj" type="github">
  <diagram name="第 1 页" id="f111Aw__0yId1xv2gxZU">
    <mxGraphModel>
      <root>
        <mxCell id="0" />
        <mxCell id="1" parent="0" />
      </root>
    </mxGraphModel>
  </diagram>
</mxfile>
